<svg id="visual" viewBox="0 0 960 540" width="960" height="540" xmlns="http://www.w3.org/2000/svg" xmlns:xlink="http://www.w3.org/1999/xlink" version="1.1"><rect width="960" height="540" fill="#00101c"></rect><g><g transform="translate(365 202)"><path d="M0 -70L66.6 -21.6L41.1 56.6L-41.1 56.6L-66.6 -21.6Z" fill="#055c85"></path></g><g transform="translate(208 476)"><path d="M0 -41L39 -12.7L24.1 33.2L-24.1 33.2L-39 -12.7Z" fill="#055c85"></path></g><g transform="translate(350 410)"><path d="M0 -48L45.7 -14.8L28.2 38.8L-28.2 38.8L-45.7 -14.8Z" fill="#055c85"></path></g><g transform="translate(784 246)"><path d="M0 -67L63.7 -20.7L39.4 54.2L-39.4 54.2L-63.7 -20.7Z" fill="#055c85"></path></g><g transform="translate(117 170)"><path d="M0 -47L44.7 -14.5L27.6 38L-27.6 38L-44.7 -14.5Z" fill="#055c85"></path></g><g transform="translate(747 45)"><path d="M0 -40L38 -12.4L23.5 32.4L-23.5 32.4L-38 -12.4Z" fill="#055c85"></path></g><g transform="translate(551 478)"><path d="M0 -49L46.6 -15.1L28.8 39.6L-28.8 39.6L-46.6 -15.1Z" fill="#055c85"></path></g><g transform="translate(582 63)"><path d="M0 -67L63.7 -20.7L39.4 54.2L-39.4 54.2L-63.7 -20.7Z" fill="#055c85"></path></g><g transform="translate(29 2)"><path d="M0 -52L49.5 -16.1L30.6 42.1L-30.6 42.1L-49.5 -16.1Z" fill="#055c85"></path></g><g transform="translate(940 281)"><path d="M0 -47L44.7 -14.5L27.6 38L-27.6 38L-44.7 -14.5Z" fill="#055c85"></path></g><g transform="translate(957 110)"><path d="M0 -49L46.6 -15.1L28.8 39.6L-28.8 39.6L-46.6 -15.1Z" fill="#055c85"></path></g><g transform="translate(560 306)"><path d="M0 -44L41.8 -13.6L25.9 35.6L-25.9 35.6L-41.8 -13.6Z" fill="#055c85"></path></g><g transform="translate(35 480)"><path d="M0 -38L36.1 -11.7L22.3 30.7L-22.3 30.7L-36.1 -11.7Z" fill="#055c85"></path></g><g transform="translate(813 520)"><path d="M0 -52L49.5 -16.1L30.6 42.1L-30.6 42.1L-49.5 -16.1Z" fill="#055c85"></path></g><g transform="translate(243 320)"><path d="M0 -30L28.5 -9.3L17.6 24.3L-17.6 24.3L-28.5 -9.3Z" fill="#055c85"></path></g><g transform="translate(212 49)"><path d="M0 -45L42.8 -13.9L26.5 36.4L-26.5 36.4L-42.8 -13.9Z" fill="#055c85"></path></g><g transform="translate(444 38)"><path d="M0 -52L49.5 -16.1L30.6 42.1L-30.6 42.1L-49.5 -16.1Z" fill="#055c85"></path></g><g transform="translate(949 481)"><path d="M0 -28L26.6 -8.7L16.5 22.7L-16.5 22.7L-26.6 -8.7Z" fill="#055c85"></path></g><g transform="translate(685 410)"><path d="M0 -67L63.7 -20.7L39.4 54.2L-39.4 54.2L-63.7 -20.7Z" fill="#055c85"></path></g><g transform="translate(51 324)"><path d="M0 -62L59 -19.2L36.4 50.2L-36.4 50.2L-59 -19.2Z" fill="#055c85"></path></g></g></svg>